<?xml version="1.0" encoding="utf-8"?>
<!-- Generator: Adobe Illustrator 26.0.1, SVG Export Plug-In . SVG Version: 6.00 Build 0)  -->
<svg version="1.1" id="Ebene_1" xmlns="http://www.w3.org/2000/svg" xmlns:xlink="http://www.w3.org/1999/xlink" x="0px" y="0px"
	 viewBox="0 0 1920 1080" style="enable-background:new 0 0 1920 1080;" xml:space="preserve">
<path d="M394.94,309c-6.71-2-17.54-2.38-24-5c-3.67-1.49-2.7-5.88-6.44-8.67c4.22-5.41,8.25-10.22,11.84-15.34
	c2.26-3.22,4.16-6.79,5.66-10.43c1.37-3.34,0.23-5.38-3.87-6.12c-18.82-3.39-37.63-6.87-56.34-10.79
	c-9.25-1.94-7.65-2.39-16.84-4.66c-8-3-14.96-2.49-17.07-2c-4.63,1.06-9.16,2.55-13.82,3.45c-3.24,0.63-6.65,0.37-9.93,0.89
	c-14.44,2.27-27.09-3.11-39.61-9.08c-0.56-0.27-0.97-0.83-2-1.74c4.76-2.02,9.08-3.87,13.42-5.71
	c13.79-5.83,27.63-11.53,41.35-17.52c19.1-8.34,38.57-8.96,58.6-3.9c13.21,3.34,26.57,6.11,39.91,8.93
	c11.7,2.48,17.56-7,23.16-17.32c5.31-9.77,12.24-7.69,22.48-10.91c3.08-0.97,6-2.47,9.98-4.15c-2.68,6.76-5.29,12.47-7.15,18.4
	c-0.98,3.12-0.63,6.65-0.89,10c3.18-0.33,6.49-0.18,9.5-1.07c8.46-2.47,16.79-5.38,25.18-8.08c11.35-3.65,22.91-4.71,34.4-1.22
	c23.53,7.14,46.95,14.64,70.41,21.99c0.18,0.56,0.36,1.12,0.53,1.68c-5.49,2.76-10.8,6-16.51,8.19
	c-16.52,6.34-33.35,7.14-50.37,1.73c-1.55-0.49-3.58-0.14-5.2,0.38c-23.59,7.55-44.78,16.48-68.36,24.06
	c-5.35,1.72-8.83,2.07-6.32,7.44c3.3,7.07,7.25,13.83,10.92,20.73c0.61,1.15,1.17,2.34,2.42,4.84c-7.47,3.73-14.74,7.36-22.01,10.99
	C403.6,309,399.27,309,394.94,309z"/>
</svg>
