<svg id="Ebene_1" data-name="Ebene 1" xmlns="http://www.w3.org/2000/svg" viewBox="0 0 1986.03 2485.04"><path id="tree" d="M2047.37,2019c-10.88,21.45-23.53,41.78-39.85,59.46-11,11.94-23.16,22.88-35.06,34-7.37,6.87-7.75,6.87-11,17,8.32-2.49,15.31-6.39,19.53-13,9.32-14.53,21.5-23.42,38.85-26.66,16-3,31-9.73,44.75-18.76a17,17,0,0,1,9.32-2.82c-2.57,3.41-5.3,6.72-7.68,10.26s-4.18,7.6-6.75,11c-5.93,8-12.24,15.67-18.27,23.57-12.21,16-29.25,20.88-48.28,21-2.52,0-5.13-1.31-7.58-2.31-8.36-3.42-15.23-.51-22.27,4.12-9.53,6.28-14.15,15.19-17.08,25.86-4.93,17.92-9.73,36-16.26,53.35-10.42,27.73-22.5,54.77-44.42,75.92a32.91,32.91,0,0,0-3.41,4.71c4.47,3.43,7.28.58,10-1.59,4.15-3.31,7.93-7.08,12.16-10.27,11-8.32,23.51-13.36,37-16.17,19.62-4.07,39.33-6.31,59.38-4.78,3.61.27,7.25.25,10.86.49.44,0,.83.89,1.35,1.49-14.36,20-33.39,33.23-57.13,40.21-13.37,3.93-26.28,9.82-40.64,7.86-6.16-.84-12.86-1.45-18.14-4.32-12.59-6.83-23.59-3.23-34.91,2.67-12.61,6.57-25.14,13.38-38.17,19-11.24,4.86-23.12,8.26-34.75,12.21-23.94,8.13-43.75,22.54-60,41.45-13.21,15.37-24.32,32.33-32.19,51.26-4.09,9.83-3.77,19.63-.24,29.16,6,16.19,12.37,32.27,19.25,48.1,11.47,26.4,23.26,52.62,32.47,80,3.47,10.29,8.54,20,12.7,30.1,1.22,2.95,1.78,6.16,2.78,9.73l-33.42,7.12c-1.29-5.85-2.15-12.3-4.16-18.36-3.65-11-8-21.82-12-32.74-5.59-15.29-10.39-30.92-16.78-45.87-13-30.52-27-60.61-40.39-91-14.82-33.77-28.67-67.92-38.21-103.66-6.67-25-3.21-48.79,8-71.67,6.88-14,14.62-27.53,21.1-41.68a82,82,0,0,0,6.56-22.82,279.78,279.78,0,0,0,1.19-61.71c-.92-10.58-.34-21.28-.79-31.91-.39-9.29-1.54-18.54-1.86-27.83-.32-9.13-7.33-13.82-12.46-19.67-1.19-1.36-4.35-1.37-6.6-1.36-19,0-32.78-10.2-43.51-24.18-7.88-10.27-10.09-23.4-13.46-37.68,4.83,3.84,8.14,6.51,11.5,9.13a111.71,111.71,0,0,0,30.16,17.19c10.8,4,17.56,11.33,20.28,22.62,1.2,5,2.7,10.16,9.74,13.61-.26-4.73,0-8.22-.7-11.51a252.73,252.73,0,0,0-26.36-69.55c-4-7.24-8.64-14.13-12.81-21.28-7.11-12.21-17.87-20.29-30-26.88-4.94-2.69-10-5.13-15-7.86-7.74-4.3-15.86-5.11-24.08-2.11a243.41,243.41,0,0,0-24.77,10.24c-10.89,5.4-21.51,6.37-32.31.36-10.3-5.73-20.5-11.64-32.6-18.52,17-4.93,31.34-10,47-2.58,8,3.82,16.93,5.84,25.5,8.46,5.64,1.72,11.17,1.34,16.41-2.21-.35-.88-.46-2.29-1.08-2.56-9.68-4.3-19.13-9.45-29.22-12.42-17.45-5.13-35.17-9.58-53-13-20.58-4-37-15.42-53.63-26.83q-18.45-12.66-37.28-24.77c-2.71-1.74-6.1-2.62-9.29-3.4-26-6.37-45.13-20.8-54.12-46.62-5.45-15.65-10-31.6-14.85-47.48-4.14-13.68-8-27.43-12-41.16a60.18,60.18,0,0,1-1.06-6.05c8.48,5.63,16.3,11.2,24.5,16.16,7.93,4.8,16.23,9,24.4,13.38,18.08,9.72,32.85,23.39,41.08,42,5.4,12.2,6.88,26.2,9.64,39.5,1.34,6.48,1.51,13.2,2.36,19.79.65,5,2.16,9.44,6.37,13a293.89,293.89,0,0,0,71.37,44.6,13.33,13.33,0,0,0,3.26.47c1.88-5.18-1-8.21-4.54-10.86a110.68,110.68,0,0,1-24.06-25.81c-8.41-12.17-11.21-25.5-11-39.63.16-10.53,1.76-21,2.91-33.61,5.11,6.13,8.79,11,13,15.44,7.76,8.16,16,15.84,23.71,24.06,7.5,8,11.44,17.86,12.57,28.72a30.1,30.1,0,0,1-4.74,19.93c-7.63,12-4.23,21.44,9.29,26.16,31,10.83,62.18,21.25,93.13,32.26,18,6.39,34.29,15.79,47.56,29.83,3.18,3.36,6.2,6.87,9.9,11,4.21-6.65.94-10.66-1.72-14.67-4.39-6.64-8.8-13.26-13.35-19.79-6.75-9.69-8.12-20.55-5.53-31.55,3.55-15.13,8.21-30,12.72-46.14,1.35,2.62,2.27,4.49,3.27,6.32,5.71,10.46,11,21.18,17.27,31.28,8.18,13.15,12.42,27,11,42.55-.84,9.44-2.8,18.41-9.39,25.76-5.68,6.34-6.73,12.7-2.45,20.84,7.57,14.38,13.84,29.45,20.88,44.12a252.55,252.55,0,0,1,21.77,69.24c3.54,22,4.23,44.35,0,66.52-.29,1.5-.28,3.06-.61,6.84,2.39-2.7,3.58-3.66,4.28-4.89,14.29-25.14,28.36-50.42,42.83-75.46,12.19-21.1,20.36-44,30-66.18,6-13.73,11.63-27.76,12.31-42.89.83-18.59,1.35-37.27.65-55.85-1.13-29.92-10.31-58.21-21.06-85.77-4.49-11.51-12.12-21.92-19.14-32.28-11.19-16.49-27.35-27.73-43.41-39q-10.14-7.1-20.12-14.42c-22.8-16.8-47.42-30.42-73.25-41.87-14.55-6.45-29.21-12.66-43.91-18.76a36.63,36.63,0,0,0-10.54-2.67c-24.44-2.31-48.89-4.62-73.37-6.49-13.53-1-26.9-2.24-40.06-6.09-17.65-5.17-34.19-12.75-50.37-21.23-31.4-16.45-62.3-34-91.31-54.26-28.78-20.14-57.15-41-80.91-67.46-10-11.08-21.3-20.93-32-31.38-19.61-19.2-35.25-41.31-48.05-65.53-12.65-23.94-23.17-48.68-24.87-76-1.46-23.54-1.61-47.16-2.36-70.75-.12-3.66-.62-7.33-.41-11,.83-14.2-7.33-23.72-16.87-32.36-2.32-2.1-5.8-3.27-8.94-4.08-14.9-3.82-29.67-2.87-44.27,1.79-14.85,4.74-29.61,9.79-44.57,14.15-16.45,4.79-33.28,4.94-50.22,2.88-5.86-.71-11.87-1.43-17.69-.88-8.41.8-16.15,3.55-20.57,11.89-3.24,6.13-7.34,11.84-10.21,18.12a22.34,22.34,0,0,0,.08,19.45c4.89,9.54,2.78,18.1-1.89,26.48-4.47,8-9.62,15.67-15.28,24.8-2.52-11.78-5.24-22.18-6.83-32.75-1-6.73.92-13.26,6.59-17.95,5-4.11,8.35-9,8.81-15.6-1.15-.41-2-1-2.3-.79-13.16,8.66-28.23,14.53-37.62,28.51-9,13.44-21.61,19.53-38.5,16.87-9.32-1.47-19.07-.26-29.2-.26,1.4-5.42,5.43-8.4,9.29-11.34,8.15-6.2,16.6-12,24.65-18.33,5.38-4.22,11.21-3.18,17.17-2.73,5.24.39,10.62,1.34,15.73.6,12.58-1.81,20.45-11,28.57-20.25-9.86,2.89-19.7,5.92-29.72,3-9.85-2.83-19.43-6.58-29.2-9.95.68-1.6.86-2.64,1.18-2.69,10.05-1.48,18.52-6.79,27.39-11.16,11.72-5.78,18.74-4.07,26.66,6.13,4.77,6.14,14.51,7.65,19,1.85,6.37-8.28,13-15.82,22.85-20,.67-.28.89-1.66,1.54-3-21.32-11.55-42.58-22.95-67.81-14.91-9.43,3-18.42,7.62-27.24,12.22-16.83,8.77-33.86,16.67-52.76,20.12-11.76,2.15-14.83,6-15.42,18.31-.63,13.32-9.44,20.25-19.65,25.44-15.45,7.86-31.89,9.42-51,4.17,6.16-3.28,10.48-6.18,15.22-8a27.81,27.81,0,0,0,16.53-16.26c4.55-11.35,11.27-19.53,24.39-20.43a7.08,7.08,0,0,0,2.66-1.33c.56-.33,1-.78,2.3-1.75-26-5.16-50.54-14.88-77-14.78-5,0-9.94-1.24-14.87-1.05-7.59.3-15.13,1-22,5.18-12.47,7.54-26.11,8.2-39.4,3.61-12.48-4.31-24.35-10.42-36.41-15.91-1.62-.73-2.8-2.42-5.25-4.63,6.69-1.74,12.08-2.92,17.34-4.56,8.54-2.66,17-5.57,25.46-8.46,11.65-4,22.19-2.92,31.09,6.43,2.06,2.16,4,4.7,6.58,6,4,2.1,8.43,4.66,12.69,4.7,18,.17,35.86,1.36,53.55,4.84a15.31,15.31,0,0,0,3.94-.26c0-5.32-4.06-6.12-7.38-6.84-13.45-2.89-20-12-23.39-24.48s-7.26-24.72-11.33-38.49c2.52,2.14,4,3.55,5.66,4.79,10.53,8,20.87,16.26,31.7,23.83,8.63,6,12.76,13.84,13.35,24.25.88,15.55,6.06,21.75,21.22,24.12a109.61,109.61,0,0,0,46.42-2.35c18.74-5.13,35.53-14.67,53.38-21.79,4.29-1.71,8.58-3.4,12.68-5,.11-1.07.47-1.91.2-2.27-9-11.9-17.83-24-27.42-35.46-3.26-3.88-8.22-7.45-13-8.69-12.77-3.28-24-9.54-35.33-15.77-7-3.83-14.27-5.87-20.6-.9-10.61,8.33-20.84,6.91-31.61,1.37q-14.09-7.26-28.08-14.69c-1.57-.84-2.9-2.13-5.75-4.27,3.77-.78,5.89-1.65,8-1.57a63.61,63.61,0,0,0,24.47-3.43c9.1-3.29,17.56-1.79,25.45,3.73a18.47,18.47,0,0,0,6.49,2.82c-6.22-10.74-12.66-21.44-22.46-29.23-3.6-2.86-9.08-3.6-13.84-4.64-3.52-.77-7.29-.38-10.93-.66a21,21,0,0,1-17.07-10.69c-2.57-4.26-5.27-8.59-6.92-13.24-3.26-9.2-7.55-17.7-13.81-25.2-1-1.14-1.32-2.75-2.32-4.94,2.47,0,4.16-.39,5.6.06,11.68,3.67,23.31,7.51,35,11.27,12,3.89,18.92,12,19.45,24.76.32,7.56,3.8,13.22,9.1,18.15A213.61,213.61,0,0,1,737.86,1149c6.42,9.11,16.82,13.61,27.95,16.92-1.41-1.32-2.64-3-4.26-3.92-10-5.86-14.6-14.76-16.12-26.06-1.18-8.85-3.72-17.52-5.42-26.32-.72-3.75-.83-7.62-1.23-11.55,1.68,0,2.58-.27,2.88,0,9.73,10,19.73,19.78,28.93,30.26,4.69,5.33,5.92,12.58,5.69,19.68-.37,11.66,5.83,20.23,14.93,25.15,10,5.43,14.88,14.74,21.88,22.49,6.66,7.37,13.42,14.69,20.58,21.57,2.2,2.11,5.93,3.92,8.86,3.78,22.45-1,42.59,6.74,62,16.38,15.18,7.54,30.51,8.42,46.51,4.82,23.62-5.31,47.29-10.4,70.76-16.3,21.79-5.47,42.72-5.05,62.88,5.74a72.53,72.53,0,0,0,7.26,3.23c.54.22,1.28-.09,3.16-.29,0-2.94.39-6.12-.06-9.19-4.5-30.22-8.14-60.62-14-90.57-4.77-24.17-13.35-47.36-28-67.75q-9.54-13.3-19.16-26.56c-14.15-19.45-34.49-29.89-56.39-37.4-16-5.47-32.36-9.71-48.71-13.93a514.93,514.93,0,0,0-72.5-13.34c-13.19-1.45-26.41-2.72-39.6-4.14a446,446,0,0,1-68.31-13c-11.2-3-22.56-6.14-34-7.2-22.52-2.08-40.21,7.78-54.91,24.52-13.12,14.94-26.6,29.76-43,41.21a122.57,122.57,0,0,1-50.19,20.47c-7.2,1.22-14.52,2-21.51,4-10,2.86-17.5,8.78-21.18,19.25a14.14,14.14,0,0,0,.91,12.27c4.54,8.66,3.86,14.39-2.4,21.62a48.65,48.65,0,0,1-3.45,3.59c-9.18,8.6-18.33,17.23-27.64,25.7-1.71,1.56-4.07,2.42-8,4.69,1.09-8.18,1.66-14,2.7-19.81,1.76-9.77,3.62-19.53,5.82-29.21,1.79-7.88,7.06-12.64,14.94-14.26,3.06-.63,6.11-.86,5.57-6.09-2.48.49-5.12.52-7.29,1.52-22.6,10.47-44.53,7.42-66.28-2.73-9.28-4.33-18.52-8-29.4-7.56-13.07.49-22.27-7.79-29.36-17.9-8-11.39-15.39-23.22-23-34.9-.69-1.06-.87-2.44-1.94-5.59,6,2.18,10.78,3.74,15.41,5.58,7.08,2.82,13.95,6.21,21.14,8.68,14,4.81,24.17,13.14,28.85,27.7a17.5,17.5,0,0,0,6.35,8.62c14.22,9.5,29.25,17.1,47.1,16.24a21.81,21.81,0,0,0,4.84-.94c.53-.15.88-.9,1.32-1.37-.34-.51-.59-1.39-1-1.48-13.12-3-19.52-13.56-25-24-6.47-12.28-11.18-25.49-17.25-39.7,3.37.24,5.7-.22,7.37.64,5,2.55,10.1,5.15,14.51,8.58a173.65,173.65,0,0,1,17,15.31,40.22,40.22,0,0,1,10.64,21c2.83,14.29,11.07,15.77,21.16,9.34,13.68-8.71,28.64-15.39,44.84-18.47,5.22-1,10.51-1.62,15.68-2.83a74.19,74.19,0,0,0,15.35-5.43c-11.27-3.59-19.78-10.63-27.38-18.77-7.44-8-17.75-13.43-23.19-24.68,15.92,4.51,30.67,8,44.84,13,5.88,2.1,10.68,7.44,15.72,11.61,2.73,2.26,4.93,5.16,7.53,8,15-5.85,26-15.78,35.79-27.2,6.88-8.07,13.13-16.72,19.23-25.41,5.91-8.43,13.26-14.61,23.16-17.67,1.15-.35,2-1.51,4.07-3.05-6.34-4.61-12-9-18-13-18.24-12.12-36.6-24.06-54.92-36.06-2-1.27-4.08-2.29-5.91-3.7-4.55-3.51-9-3.1-13.85-.53-25.82,13.56-48.81,4.66-71-9.38-1.21-.76-1.83-2.45-3.42-4.69,23.92-8.75,46.72-7.11,69.56,1.21l.83-1.77c-2.16-2.79-3.94-6-6.54-8.31-23.6-21-43.85-45.19-65.1-68.41-12.26-13.4-27.77-20.78-44.51-26.16-6.94-2.23-14.21-3.41-21.31-5.12-12.86-3.09-23.8-9.84-34.22-17.75-17.3-13.15-31.25-29.53-45.35-46.24-4.44,6.24-10.69,9.62-17.36,12.87-8,3.89-14.81,1.42-21.87-1.78-7.54-3.42-15.18-6.62-22.58-10.32-4-2-7.62-4.85-11.87-7.62,1.56-1.45,2.16-2.5,2.89-2.6,16.86-2.19,32.49-13,50.51-7.21.75.24,1.84-.58,3.21-1.06-3.71-5.7-9.11-8.65-15-10.93-3.07-1.19-6.48-1.78-9.2-3.5A11.52,11.52,0,0,0,313,665.13c-8,8.16-16.8,9.65-27.62,8.17-9.8-1.34-16.89-6.15-23.87-12.14,8.42-11,26.51-15.15,43.24-11.47-3-1.94-5.8-4.48-9.08-5.66a25.92,25.92,0,0,1-10.37-6.3c-6.29-6.57-15.05-7.25-23-10-2.49-.85-4.94-1.81-7.42-2.69-8.6-3.08-12.23-11.29-17.9-17.4-1.1-1.19-1.53-3.35-2.8-4-14.22-6.94-12-22.15-17-33.66-.54-1.24.34-3.11.6-5a18.11,18.11,0,0,1,12.36,3.36,209.78,209.78,0,0,0,21.75,12.94c6.64,3.47,11.89,7.9,14.89,14.91,2.19,5.1,3.79,10.94,7.4,14.82,6.14,6.59,11.38,14.57,20.45,17.85,1,.35,2.35-.49,4.49-1-10.11-11.79-9.93-24.74-7.63-38.3,1.15-6.79.93-13.81,1.45-20.71.19-2.48.73-4.93,1.16-7.74,16.56,10.83,25.55,49.67,17.5,73.55,7.78,11.06,20,16.11,33.14,24-1-5.26-1.36-8.42-2.29-11.39q-7.11-22.83-14.51-45.56c-.79-2.45-2.13-4.72-3.09-7.12-1.23-3.06-3.49-6.25-3.27-9.24.59-7.81-3.09-14.12-6.07-20.61a32.85,32.85,0,0,1-2.6-20.21c2.2-12.66,2.88-25.64,9.81-38.06,1.55,1.89,3.19,3.34,4.15,5.15,3.25,6.1,5.86,12.57,9.49,18.41,2.45,3.95,1.84,8,2.07,12,.45,7.74-.17,15.22-3.3,22.73-3.86,9.28-2.05,18.7,3.18,28.84,4.4-10.37,3-21.55,9.83-29.42,6.35-7.35,9.95-17.17,20.21-22.82.9,3.33,1.94,6,2.28,8.72.95,7.48,1.61,15,2.37,22.51.64,6.31-2.45,11.65-4.91,17A138.26,138.26,0,0,1,358.93,606c-11.45,18.06-9.3,36.27,1.36,53.13a503.22,503.22,0,0,0,37.13,51.55c10.6,12.84,25.05,21.56,40.63,27.86,11.66,4.72,23.12,9.68,36,10.74,6.27.52,12.3,4.06,19.83,6.73-.57-3.16-.54-5.09-1.26-6.68-13.81-30.16-29.72-59.37-41.36-90.51-4.52-12.1-8.32-24.48-13-36.52-7.93-20.4-16.55-40.54-24.43-61-7.76-20.1-15.54-40.22-22.22-60.69-6.05-18.54-12.75-36.72-21.8-54-5.91-11.29-12.73-14.56-26.16-13.36-4.22.38-8.91.3-12.77-1.18-15.26-5.82-28.34-14.46-37.53-28.72-4.68-7.26-11.44-13.19-17.28-19.7-.2-.22-.78-.15-.9-.37-3.2-6.07-6.37-12.16-8.06-19.52,2.92,1,6.45,1.33,8.64,3.21,9.61,8.25,21.81,8.53,33.09,11.81s22.25,7.54,30.24,16.75A33.68,33.68,0,0,1,345,405.2c2.54,6.52,3.74,8.64,10.53,13.6-2.19-6-3.35-11.22-5.85-15.69-9.06-16.14-13.93-33.29-16.47-51.66-2-14.26-6.77-28.18-11-42.05-2.94-9.75-10.56-14-20.79-12.71-11.55,1.43-20.43-4-28-11.61-4-4.08-6.85-9.35-10.19-14.11-4.92-7-10-13.93-14.64-21.14-1.79-2.79-2.54-6.25-4.36-11,3.58.84,5.25.88,6.54,1.59,8.08,4.49,16.64,5.13,25.78,5.9a31,31,0,0,1,20.66,10.95c2.15,2.62,5,4.65,7.56,7l1.73-1.29c-.69-2-.92-4.28-2.14-5.82-6.31-7.89-10-17.73-18.46-24.07-1.69-1.28-2.21-4-3.57-5.86-2.33-3.17-2.79-8.8-9.08-7.2-.44.11-1.25-1.75-2.07-2.5-1.66-1.53-3.27-3.88-5.19-4.23-9.34-1.68-11.93-10.29-17.21-16.1-.74-.81-.67-2.36-1-3.56-1.55-5.87-2.08-12.31-4.92-17.47-3.26-5.92-3.16-11.7-3.35-17.63,4.13-2.48,6.17.32,8.82,2.33,4.58,3.47,8.87,6.66,15,8.63,11,3.56,23.4,7.74,28,20.61a40.67,40.67,0,0,1,2.5,15.37c-.4,7.67,2.84,14.12,5.48,20.69,1.23,3,5,5.07,9,8.87,0-3.24.31-4.44-.05-5.4-3.9-10.42,1.19-19,5.9-27.41,6.11-11,12.59-21.7,19.1-32.41,3-4.9,6.43-9.51,10.48-15.45,1.32,2.48,2.91,4.17,3,5.94.25,4.26.82,8.93-.56,12.78-3.13,8.69,1.26,17,0,25.74-1.14,7.62.16,15.76,1.3,23.53,1.22,8.32-2.71,14.54-6.71,20.93-3.13,5-6.91,9.64-9.37,14.93-1.58,3.4-1.94,7.71-1.7,11.54,1.3,20.89,8.53,40.6,12.3,61,1.7,9.18,6.72,17.58,6.13,27.24-.11,1.78,1.18,3.79,2.21,5.46,2.74,4.45,6.21,4.49,9.22.26,5.77-8.12,11.69-16.14,17.19-24.44a49,49,0,0,0,4.92-10.82c2.09-6,3.82-12.06,5.67-18.11,2.16-7.07,5-12.19,13-15.78,10.91-4.87,20.18-13.45,30.09-20.54,4.72-3.38,9.27-7,14.08-10.6,4.65,9,2.32,21.38-3.89,28.28-2.77,3.08-4.67,7-6.7,10.66-5,9-8.77,19-15.05,27-3.89,5-11.09,8.15-17.44,10.13a32.3,32.3,0,0,0-19,15c-4.73,8.21-8,17.29-11.65,26.09-3.08,7.39-1.78,15.47.3,22.27,2.83,9.25,9,17.46,13.15,26.36,2.24,4.75,3.2,10.1,5.14,15a63.25,63.25,0,0,0,7,12.94c1.49-21.26,10-37.63,29.51-48.39,2,4.84,2.44,8.86,1.22,13.59-1.13,4.39-1.89,9.38-.94,13.69,2,8.86-.27,17-3.26,24.84a39.68,39.68,0,0,1-9.42,13.59c-7.58,7.39-7.67,15.86-4.7,24.76,4.63,13.83,10.47,27.28,14.58,41.25,4.3,14.59,10.1,28.47,16.37,42.23,5.73,12.57,11.48,25.13,17.37,37.63,1.37,2.91,3.32,5.53,5.32,8.79,1.69-1.24,3.11-1.76,3.63-2.75,8.9-16.72,21-29.92,37.67-39.69,10.41-6.12,19-15.3,28.49-23,10-8.12,20.6-15.59,30.06-24.29a115.16,115.16,0,0,0,27.31-38.79c3.35-7.59,7-15,10.14-22.73a93.6,93.6,0,0,0,3.72-13.18c2.34-9.73-1-17-8.74-23.38-9.41-7.75-6.74-18.71-5-28.76,1.14-6.72,4.16-13.1,5.44-19.8,1.65-8.67,2.4-17.51,3.62-27,5.73,3.41,7.13,9.73,7.51,14.85.89,11.91,6,22.29,10.24,32.89,3.35,8.44,5.72,16,1.31,24.59-1.59,3.1-1.94,6.82-3.43,12.43,3.84-3.1,6.41-4.32,7.72-6.35,10.58-16.4,21.23-32.59,24.15-52.78,2.71-18.73-3.94-33-17-45.4-1.87-1.78-4.63-3.33-5.33-5.52-2.25-7-7.57-11.59-12.57-16.18-7.88-7.25-9.27-16.44-8.89-26.12a78.74,78.74,0,0,1,3.91-22.24c3.17-9.49,4.25-19.67,6.38-30.33,1.26,1.22,3,2.18,3.62,3.63,5.87,13.64,11.53,27.37,17.31,41.05,4.23,10,5.13,20.48,4.24,31.18-.14,1.64,0,3.57-.84,4.85-3.71,5.85-1.61,11,2,15.63,4.14,5.4,8.75,10.44,14.17,16.84,4.13-9.85,7.37-18.82,11.57-27.31,8.47-17.16,14.8-35.47,28.28-49.94,7.41-8,9.77-17.62,5.76-28.55-4.24-11.58.49-21.49,7.91-30,4.78-5.51,11-9.76,15.93-15.16s9.29-11.76,13.9-17.67c.75-1,1.55-1.86,3.84-4.59.34,4.32,1,6.73.62,9-2,11.74-4.45,23.4-6.44,35.14-1.14,6.77-4.82,12.14-8.56,17.56q-2.49,3.62-5,7.22c-3.6,1.7-4.87,4.28-3.21,9l5.42-4.56a42.64,42.64,0,0,0,14.73-7.45c4.07-3.19,9.87-4.61,15.13-5.72,4.59-1,6.15-3.42,8-7.41,4.75-9.95,12.44-15.08,24.45-14.72,11.62.34,23.5-.19,34.43-5.94,3.6-1.9,8.21-1.89,14.15-3.12-2,3.16-2.63,5-3.88,6.14-6.33,5.91-12.91,11.54-19.19,17.49a51.54,51.54,0,0,0-8.51,9.59c-4.26,6.78-10.39,11.22-17.39,14.21a17.86,17.86,0,0,1-15.41-.12c-9.6-4.75-18.33-4.89-27.54,2.62-6.42,5.24-15.84,6.45-22,12.8-2.11,2.19-3.67,4.92-6.42,8.69,11.09.75,20.59-2.47,29,2.53.17.52.46,1,.35,1.13-7.36,8.8-13,19.06-22.53,26a26,26,0,0,1-17.85,5.1c-12.59-1.11-17.19.65-22.24,11.36a202.46,202.46,0,0,0-10.61,26.81c-5.81,19-10.61,38.33-16.39,57.35-4.42,14.56-14.11,26-23.69,37.49A119.57,119.57,0,0,0,619,470c-7.86,13.46-15.42,27.09-23,40.68-.47.83-.47,1.92-.9,3.8,4.87-.35,8.5-1.87,9.87-6.44C610,491,623,484.91,639.23,483.19c11.43-1.21,22.74-2.79,32.93-8.85,2.4-1.43,5.53-1.63,9.66-2.77-1,2.58-1.17,4.49-2.21,5.65-10.23,11.3-20.64,22.43-30.9,33.71-7.31,8-15.91,12.65-27.14,12.05-17.2-.91-30.65,7.32-42,19-12.93,13.33-26.58,25.56-42.14,35.87-10.47,6.94-20.11,15.28-29.52,23.65-7.63,6.78-14,15-21.66,21.73-4.05,3.58-6.09,7.68-7.61,12.44-2.8,8.75-7,17.3-5.22,26.87,1.34,7.14,2.63,14.39,5,21.22,4.79,13.79,9.54,27.69,15.72,40.88a325,325,0,0,0,21.38,38.21c16.77,26,38.29,48,61,70.78,1.66-5.61,1.43-9.88-.75-14-7.27-13.92-8-27.32.38-41.53,4.48-7.54,6.13-16.76,9-25.24.91-2.67,1.7-5.37,4.51-8.17a48.35,48.35,0,0,1,3.05,6.69c3.36,11.79,6.56,23.63,9.79,35.46,2.74,10,1.88,18.59-7.23,25.85-11.1,8.84-12,15.22-4.78,27.59,4.13,7.11,9.21,13.54,16.25,18.46,19.57,13.68,38.87,27.75,58.17,41.79,13.26,9.64,28.27,15.51,43.33,21.59a345.9,345.9,0,0,0,78.65,21.29c5.19.78,10.46,1,16.82,1.57-2-8.69-4.17-16.23-5.5-23.92-1.87-10.77-3.52-21.61-4.57-32.49-1-10.49-7.37-18.47-17.63-19.38-10.65-.94-17.82-6.9-20.79-16.11-3.85-11.93-5.6-24.54-8.16-36.88-.17-.83.47-1.83,1-3.74a119.38,119.38,0,0,1,27.76,22c8.24,8.7,11.57,20,17.2,30.26,1.9-8.19,3.15-16.07,0-23.59-3.48-8.21-6.71-16.75-11.65-24.06-19.65-29-33.28-60.48-39.3-94.94-2.49-14.25-11.71-19-23.95-21.19a76.19,76.19,0,0,1-7.85-1.37c-7.82-2.3-14.8-5.84-18.74-13.59-4.49-8.85-9.18-17.61-13.56-26.51-.78-1.59-.51-3.7-.93-7.3,4.16,2.87,7.16,4.7,9.88,6.86,6.13,4.87,12.69,8.24,20.8,8.59,13.92.6,21.24,9.42,25.69,21.57,1.19,3.25,2.78,6.36,4.19,9.53l2-.29a37.94,37.94,0,0,0,1.15-6.07q.94-27.74,1.68-55.49c.37-13.83-3.72-26.28-12.82-36.7-2.51-2.88-6.33-5.75-9.91-6.32A170.66,170.66,0,0,0,692,591.77c-6.31.05-12.14,2-15.7,8.66-3,5.6-9.48,8.12-15.13,8.37-13.15.56-26.4,3-39.55-.08a4.94,4.94,0,0,1-1.47-1c0-.65-.23-1.67,0-1.82,9.93-5.82,19.61-12.19,30-17.09,7.59-3.58,16.1-5.21,23.79-7.58-7.3-5.35-16.72-9.41-26.9-9.53-10.44-.12-17-5.59-21.76-13.32-2.87-4.66-6.49-9.94-5.16-16.44,6.45,1.73,12.59,3,18.45,5.06,7,2.48,13.44,6.37,16.15,13.82,1.66,4.58,4.38,6.37,9,6,1.12-13.06-6.46-24.21-9.27-38.35,12.83,6.25,22.61,13.17,29.93,23.12,1.64,2.22,2.15,5.54,2.47,8.42,1.23,11.34,6.86,17.17,17.8,18.91A161.68,161.68,0,0,1,723,583.35c10.89,3.08,16.78,11.13,20.44,21.26,1.76,4.86,3.59,9.7,6,16.34,8.15-14.31,13.77-27.16,15.23-41.57.37-3.64.64-7.3.65-11,0-5.82-1.59-11.11-5.67-15.51-11.34-12.22-11.77-27.44-9.33-42.24,2.75-16.65,7.93-32.9,12.1-49.32a31.16,31.16,0,0,1,1.77-3.84c1.25,3.45,2.19,6,3.09,8.56,3.1,8.77,5.83,17.69,9.36,26.29,6.61,16.11,7.64,32.12.78,48.39-5.28,12.52-4.06,25.66-2.61,39.2,1.49-2.76,3.79-5.38,4.28-8.31a16.72,16.72,0,0,1,8.42-11.83c14.1-8.46,28.49-16.44,44.83-25.77-1.65,6.86-2,12.26-4.21,16.68-4.33,8.53-9.09,17-14.92,24.55-4.34,5.62-10,10-18.27,10.78-12.38,1.15-20,8.23-26,20-14.51,28.61-16.77,59-16.79,90,0,8.64.91,17.62,4.88,26.48,4.76-6.85,7-12.79,5-20.83-2.13-8.65,1.32-17.33,6.31-24.5,8.43-12.11,17.67-23.64,27.91-37.18-1.17,9.85-2.14,17.91-3.09,26-.66,5.6-1.7,11.2-1.87,16.82-.33,11.17-4.67,20.73-11.84,28.8s-10.66,17.36-13.46,27.24c-2.51,8.88-.13,17.38,3.73,25.15,8.53,17.21,17.72,34.1,26.67,51.1.29.54,1,.86,2.18,1.83,1.82-1.41,4.4-2.55,5.65-4.54,7.11-11.3,18-18.36,28.64-25.53,6.91-4.67,12.31-10,15.14-17.77,4.24-11.62,11-21.08,22-27.28a19.17,19.17,0,0,0,5.14-4.67c4.61-5.66,4.47-9.86-1.15-14.61-9.15-7.74-10.8-17.78-6.94-27.88,3.65-9.54,5.23-19.13,6.07-29.07.21-2.49.83-4.94,1.26-7.41l2.14-.43c1.77,4.34,3.63,8.65,5.29,13,2,5.26,3.59,10.67,5.76,15.85,3.3,7.91,4.72,15.8,2.38,24.31-1.46,5.33-2.09,10.88-3.37,17.87,12.25-7.14,16.47-17.46,17.93-28.76,1.56-12.08,2.33-24,0-36.56-2.38-12.68,3.68-24.64,11.74-34.84,5.53-7,11.29-13.83,17.16-20.56,2.39-2.74,3.53-7.47,8.79-6.79,1.63,9.63,4.11,19,4.63,28.42.9,16.38-6.41,29.28-19.83,38.52-8.8,6.06-14.67,13.45-13.8,24.79.18,2.32-.07,4.67,0,7,.37,7.53-1.13,14.44-6,20.47-1.59,2-2.58,4.43-3.84,6.67l1.57,1.2c2.5-3.36,5.62-6.42,7.38-10.13,6.4-13.5,15.5-22.81,31.47-23.78,5.13-.31,10.15-2.42,15.21-3.71l1.38,1.88c-10.11,12.86-19.91,26-30.45,38.48-5.07,6-12.26,8.3-20.45,8.78a62,62,0,0,0-35.68,13.87,34,34,0,0,0-9.67,12.42c-6.52,15.12-18.75,24.71-31.37,33.85S812.2,820.64,811,836.33c-.33,4.23.4,8.53.28,12.78-.37,13.63-1,27.25-1.34,40.88-.17,7.3-.89,14.8.42,21.87,2.26,12.2,7.9,23.7,16.71,32,5.26,5,14.25,6.58,21.88,8.31,6.39,1.44,13.3.4,19.87,1.25,45.87,5.9,91,15,134.22,32,6.68,2.63,13.28,5.49,21.48,8.9,0-5.28.49-8.81-.08-12.17-3-17.85-3.14-35.52,1.07-53.3a56.16,56.16,0,0,0,1-19.68,21.58,21.58,0,0,0-8.27-15c-9.59-7.58-16.31-17.48-15.42-30.76,1.21-18.18,2.39-36.37,3.61-55,3.66,0,4.27,3.29,5.43,5.76,5.77,12.33,11.26,24.79,17.2,37s6.89,25.28,5.33,38.71c-.62,5.38-.1,10.88-.1,16.33l2.16.52c1.81-3.33,3.6-6.67,5.44-10,8.23-14.78,15.61-30.11,24.91-44.18,13.6-20.57,21.39-43.47,29.64-66.29,2.55-7,1-14-1.83-20.43A183.81,183.81,0,0,0,1051,704.64c-5.56-5.22-11.38-10.19-17.37-14.91-5.31-4.19-11.87-5.22-17.74-2.31-13.77,6.83-27.17,4.37-40.62-.29-12.53-4.35-25-9-37.37-13.65-1.79-.67-3.24-2.25-6.47-4.58,26.61-5.75,50.66.89,76.08,2.24-1.45-2.33-1.95-4.29-3.1-4.81-11.66-5.25-18.65-15.67-27.47-24.11-14.26-13.64-19.92-31.87-27.29-49.23-1.41-3.33-2.29-6.91-3.94-10.11-5.35-10.4-11.38-13-22.74-9.94-4.15,1.1-8.25,3.18-12.42,3.28-8.69.21-16.57-1.84-23.68-8.06-7.66-6.71-16.79-11.72-25.19-17.61-2.56-1.8-4.81-4-8.88-7.53,11.59-4.2,20.79-1,29.95-.08,9.88,1,20.06,1,29.08,5.77,8.3,4.36,16.17,9.53,25.87,15.32-1.23-3.62-1.58-5.79-2.61-7.56-9.92-16.94-24.3-29.7-39.72-41.31-13-9.76-26.34-19-40.24-28.93a45,45,0,0,1-5.85,1.19c-9.35.81-17.22-1.18-24.23-8.6-7.24-7.67-11.87-16.68-17.19-25.45-2.73-4.51-5.57-9.17-9.29-12.8-3.42-3.34-3.82-6.5-2.85-11.56,5.41,2.09,10.18,4,15,5.78,9.31,3.45,18.54,7.12,28,10.14,10.41,3.32,17.44,9.26,19,20.62,1.44,10.82,8.1,17.59,17.16,23,8.58,5.13,16.59,11.22,25.77,17.52-.37-2-.24-3.38-.72-3.66-7.65-4.38-11.14-11.56-11.95-19.72-1.46-14.54-2.14-29.17-3.06-43.76a11.71,11.71,0,0,1,.76-3.35c1.21,0,2.22-.24,2.4,0,7.23,11.47,14.34,23,21.57,34.48,5.21,8.27,6.89,16.92,4.62,26.63a27.6,27.6,0,0,0,6.61,25.83c6.17,6.91,12.46,13.74,18.2,21,8.09,10.24,13.31,22,17.35,34.39a316.72,316.72,0,0,0,12.49,31.24c1.64,3.68,4.87,6.64,7.81,10.49-.29-9.16-.93-17-.63-24.79.15-3.86,2.15-7.63,3.12-11.49,2.17-8.65,4.44-17.28,6.22-26,1-5,.92-10.3,4.36-15.4,2.65,12.31,5,23.5,7.47,34.68a81.79,81.79,0,0,0,2.19,8.62c3.76,11.27,1.75,21.34-5,31.08-4.72,6.76-3.31,18.71,2.53,25.13,6.24,6.87,12.81,13.49,19.69,19.71,11.06,10,23.09,19,33.64,29.48,15,15,29.46,30.6,43.41,46.59,4.44,5.09,6.51,12.25,9.74,18.42,1,1.91,2.26,3.68,4.81,7.76,3.28-12.32,6.72-22.25,8.5-32.47,5.57-32.08,11-64.2,10.17-97-.19-7.64,1.06-15.39.14-22.91a58,58,0,0,0-5.9-18.7,16.88,16.88,0,0,0-14.53-9.37c-17-.68-28.17-11.36-37.87-23.19-5.25-6.41-11.67-12.79-13.84-23.15,14.67,2,26.76,8.38,39.11,14.16,13.19,6.18,18.52,20.17,29.93,30.75,1-11.19-.88-20.17-3.17-28.86-7.45-28.33-17.66-55.63-32.89-80.81-16.3-26.95-32.53-53.95-49.28-80.62a315,315,0,0,1-29-59.9,95.2,95.2,0,0,0-5.17-11.8c-4-7.54-7.59-8.67-16.16-7.84-7.15.69-14.58,1-21.6-.18-5.28-.89-10.46-3.91-15.06-6.92-8.32-5.44-16.3-11.43-24.18-17.5-4.31-3.32-8.14-7.27-12.18-10.94l.8-2.18c2.78-.44,5.72-1.71,8.3-1.18,15.47,3.18,30.88,6.65,46.26,10.26,10.68,2.5,19.9,7.27,25,17.75.2.41,1.16.44,2.68.95-.15-2,.09-3.8-.44-5.32A139.18,139.18,0,0,0,969,248.19c-3-3.27-6.23-3.77-9.83-3.18-11.95,1.94-18.9-3.22-24.57-13.73-5-9.22-12.85-16.85-19.11-25.42-4.55-6.22-11.25-11-13.93-20.64,4.21.86,7.82.62,10.06,2.25,7.82,5.68,17.23,6.68,25.94,9.55,9.41,3.1,17.19,8.35,24.57,14.67,5.31,4.55,5.84,10.82,7.18,16.94.68,3.12,1.21,6.6,3,9.12,6.33,9.14,13.15,17.95,20.89,28.38-.17-3.65,0-6-.44-8.25a50.3,50.3,0,0,1,1.81-26.37c3.8-11.6,5.59-23.86,8.27-35.83.46-2.07,1.1-4.1,1.7-6.32,1.22.65,2.13.86,2.18,1.2,2.19,13.76,5,27.47,6.23,41.31,1,10.86.38,21.91-.11,32.85-.12,2.65-2.14,5.63-4.09,7.69a12.08,12.08,0,0,0-3.29,11,132.34,132.34,0,0,0,3.87,17.49c9.41,29.42,20.32,58.19,37.88,84,3.27,4.79,5.88,10,10.37,14.57,0-3.79.23-7.61,0-11.38-1-14.08,1.06-27.87,4.23-41.46,3.92-16.8,8.65-33.4,12.64-50.18a69.69,69.69,0,0,0,1.53-26.62c-1.27-8.71-5.12-15.12-12-19.63s-10.46-10.72-11.4-18.83c-2.13-18.47-4.46-36.92-6.69-55.37a6.09,6.09,0,0,1,.07-2.95c.8-1.91,1.59-4.1,3.08-5.31.55-.45,3.61,1.13,4.6,2.47q10.59,14.37,20.75,29.06c5.39,7.75,9,16.28,9.65,25.8a111.57,111.57,0,0,1,.07,12.67c-.33,7.13-.9,14.25-1.5,23.19,6.44-4.13,6.08-8.92,6.18-13.11A58.14,58.14,0,0,1,1099.09,215c2.64-3.77,5.34-8.17,9.12-10.34,10-5.71,16.33-14.32,22-23.78a7.5,7.5,0,0,1,4.89-3.33c-1.3,8.4-2.31,16.87-4,25.2-2.4,12-5,24-8,35.84-2.26,8.68-7,15.43-16.51,18.1-8.54,2.38-13.94,9.28-17.12,16.87-3.38,8.07-4.84,16.94-7,25.5-.18.72.76,1.71,1.61,3.47,1.52-1.6,3.26-2.64,3.8-4.11,4.59-12.51,14.87-16.74,26.72-19.25,11.28-2.39,22.44-5.39,33.68-8,2.65-.61,5.41-.74,8.12-1.09.25.67.5,1.34.76,2-1.72,1.75-3.51,3.44-5.15,5.26-8.22,9.12-16.09,18.58-24.68,27.34-8.92,9.1-19.51,14.65-33,11.9-7.85-1.6-10.34-1-13.08,6.57a225.79,225.79,0,0,0-9.54,33.39,162.4,162.4,0,0,0-2.29,49.48,66.68,66.68,0,0,0,6.23,21.81c7.34,14.83,15.79,29.11,23.87,43.57.86,1.55,2.22,2.82,4.8,6-3.35-23.27,10.8-38.52,17.47-58.22,1.66,2.72,3,3.9,3.06,5.18,1.12,14.25,2,28.51,3.09,42.76a27.27,27.27,0,0,1-5.9,19.58,17.16,17.16,0,0,0-3.38,15.9c2.38,9,3.58,18.34,6.81,27,6,16.1,8.81,32.88,10.11,49.69,2.09,27.16,4.16,54.51,3.19,81.67-1.67,47-8.18,93.36-26.15,137.34-6.16,15.06-12.84,29.92-19.64,44.7-2.19,4.75-5.65,8.91-8.33,13.45-2,3.35-3.64,6.9-6.57,12.51,7.19-2.65,12.5-2.9,15.61-8.69,6.65-12.35,17.41-19.49,30.68-23.52,14-4.24,27.65-9.28,39.76-20.26.35,2.78,1.08,4.41.6,5.52-1.78,4.11.85,6.35,3.36,8.45,4.31,3.6,8.75,7.06,13.33,10.31,6.89,4.89,9.76,11.91,9.55,19.82s2.61,14,8.14,19.47c7,6.89,13.46,14.23,20.17,21.38l1.93-.91c0-2.15.59-4.51-.1-6.41-2.79-7.7.19-14.27,3.32-21s6.06-13.8,10-23c2.48,13.75,6.51,24.64,5.36,36.38-.54,5.58-.88,11-4.88,15.77-5,5.94-4.63,12.92-1.31,19.75,4.49,9.23,9.17,18.38,13.49,27.69,6.82,14.68,12.91,29.64,15.64,47.66,9.1-15.56,13.69-30.78,17.33-46.4l2.19.11c.89,3.26,2.32,6.48,2.59,9.79,1,11.92,2,23.87,2.11,35.81.08,10.84-3.18,20.22-14.52,25.06-2.45,1-4.37,4.69-5.36,7.54-4.6,13.19-4.23,27-2.57,40.47,1.28,10.41,4.72,20.72,8.36,30.65,4.39,12,12.39,21.49,21.51,30.67,23.14,23.29,37,51.58,40.8,84.5,1.16,10.15,2.39,20.29,3.7,31.36,6.84-4.32,9.9-10.57,13.31-16.35,8.09-13.72,16-27.51,21.63-42.57,9.48-25.25,9.24-50.74,3.92-76.6-5-24.42-10.66-48.72-15-73.26a114.17,114.17,0,0,1-.85-30.79c1.37-13.85.49-27.14-4-40.27-3-8.77-5.51-17.72-8.82-26.36-1.78-4.65-4.75-9.15-10.69-9.09-11.43.12-17-7.46-20-16.54-3.34-10.14-6.58-20.13-12.69-29-.39-.56.21-1.8.44-3.29,9.67,6.89,19.44,13,28,20.38,3.64,3.14,5,9,7.13,13.78,1.63,3.67,2.79,7.54,4.15,11.32l2.22-.26c2.71-9.79,5.51-19.56,8-29.4.36-1.39-.42-3.23-1.06-4.69-7.33-16.82-6.14-32.35,4.87-47.66,6.51-9.06,10.93-19.62,16.34-29.48,1.06-1.94,2.33-3.76,4.77-7.66.41,3.93.85,5.62.72,7.27-1.11,13.55-3.08,27.08-3.28,40.64-.15,10.33-3.83,19-9.44,26.81-5.12,7.09-6.89,14.92-8.73,23a84.84,84.84,0,0,0,4,50.8c2.8,7.2,3.31,15.28,5.23,24.81,2.54-4.15,4.3-7.07,6.1-10,14.65-23.57,32.54-44.54,52.43-63.74,8.8-8.5,18.56-16,28.18-23.66,5.39-4.27,8.71-9.06,7.49-16.17-1.91-11.17,1.16-21.25,7.79-30,8.54-11.24,17.82-21.91,27-33,.91,1.39,1.59,1.94,1.54,2.41-2.74,21.9-5.88,43.62-24.18,59.21-2.53,2.15-4.38,5.1-6.55,7.68l1.67,2c6.57-3.52,13.38-6.65,19.66-10.63,19-12.06,38.11-24.08,59.46-31.76,7.56-2.72,11.84-6.95,13-15.58,1.32-9.75,9-16.26,16.53-21.69,9.35-6.74,19.5-12.39,30.08-19-3.84,21.75-18.44,35.19-34.16,48.49a45.26,45.26,0,0,0,4.52-.5c9.73-2,19.39-4.51,29.2-6.07a30,30,0,0,0,14.32-6.27c3-2.33,7-4.71,10.55-4.82,16.8-.5,33.61-.22,51.49-.22-1.9,1.69-3.36,3.21-5,4.44-7.47,5.52-15.18,10.74-22.48,16.47-11.41,9-23.06,9.13-35,1.56a25.73,25.73,0,0,0-17-4.25c-19.75,2-38.22,8.14-55.91,16.87-1.39.69-2.46,2-5.13,4.35,3.55-.43,5.79,0,6.94-.95,14.7-12,30.54-10.42,47-4.7,10.8,3.74,21.84,6.77,33.45,10.32a24.67,24.67,0,0,1-4.13,2.54c-6.2,2.32-13,3.55-18.59,6.86-12.72,7.52-25.78,8-39.31,3.77a111.49,111.49,0,0,1-17.39-7.14c-9.8-5-19-5.55-29.39-.66-18.57,8.74-34.19,21.74-50.89,33.17-9.81,6.72-19.21,14-28.52,21.83,12.74-5.15,24.76-2.29,37,1.33,7.25,2.14,15,2.83,22.48,4,3.09.48,6.24.51,9.51.76-.36,1.86-.29,2.85-.63,3-11.61,5.71-23,12-35,16.79-11.34,4.57-22.19,0-32.63-4.63-2.11-.94-3.94-2.51-6.06-3.42-9.79-4.21-14.19-3.53-21.5,3.93-19.41,19.81-33.39,42.83-40.4,69.82-6.33,24.37-5.6,48.68,1.25,72.83,3,10.5,6.19,20.93,11,31.47a37.5,37.5,0,0,0,2.12-5.65,35.87,35.87,0,0,0,.33-6c.49-11.36,4.27-20.24,13.5-28.36,10.85-9.55,19.07-22.08,28.45-33.3,2.68-3.2,5.43-6.35,8.14-9.52l2.22.61c0,3.11.64,6.39-.11,9.31-3.39,13.18-6.75,26.39-10.92,39.33-4.83,15-16,25.37-28.66,33.51-9.65,6.2-12.85,14-13.07,24.92-.32,16.26-1.78,32.49-2.78,48.73-.76,12.36-6.93,22.81-12.39,33.37-10.59,20.48-25,38.32-39.36,56.25-13.66,17.1-29.26,32.83-38.63,53-1.34,2.9-2.54,5.87-3.91,9,1.41.08,2.33.36,2.51.11,7-9.86,16.46-16.07,28-19.77s20.51-11.91,29.42-19.89c2.6-2.33,5.39-4.45,8.1-6.66l1.85,1.38c-5.08,9.46-9.78,19.15-15.35,28.31-5.16,8.49-10.53,16.86-18.47,23.38-8.6,7.06-18.55,8.77-28.9,8.43-9.34-.3-12.76.77-15.69,9.66-3,9.11-6,18.41-7.33,27.86a444.91,444.91,0,0,0-3.28,90.36c2.17,33.29,13.76,62.66,30.74,90.46,7.31,12,16.36,22.55,28.35,30.42,17.71,11.64,33.7,25.84,53.1,35,23.54,11.09,47.71,20.61,73.59,23.76,18.4,2.24,37.12,2,55.71,2.56,11.3.33,22.63.06,33.77.06,2.68-3.94.12-6.79-1.66-9.28-10.71-15-17.78-32-24.62-48.86-4.55-11.22-7-23.53-8.76-35.58-2.34-16.23,3.9-30.35,15.47-41.5,14.13-13.62,29-26.48,43.66-39.57,5.95-5.31,11.77-10.88,18.31-15.39,7.78-5.37,9.37-13.3,10.87-21.49.78-4.23-1.26-7.49-3.74-10.91a106.22,106.22,0,0,1-10.87-17.72c-7-15.28-4.44-30.51,1.58-45.5,2-4.9,3.76-9.87,5.59-14.72,21.15,21,25,41.88,15.19,68.4a63.71,63.71,0,0,0-4.18,27.26c6.66-7.56,12-13.2,16.83-19.24,4.35-5.44,8.1-11.37,12.2-17,4.4-6.06,7-12.52,6.89-20.28-.25-17.27,6.45-32.63,15.7-46.54,8.09-12.16,20.31-19.43,34.39-23.9,8.13-2.58,15.72-6.87,24.29-10.72-.74,2.63-1.36,5-2.08,7.37-1.76,5.71-4.32,11.28-5.2,17.12-2,13.23-8.47,24.33-15.18,35.47-8.48,14.07-20.75,23.07-36.32,27.69-5.76,1.71-9.31,5.08-12.28,10.52a203.59,203.59,0,0,1-41.72,52.82c-14.41,13.21-28.09,27.22-41.87,40.66,6.26,1.51,11.73.24,19.38-5.94a104.76,104.76,0,0,0,14.27-13.74c14.38-17.08,33.25-24.39,54.79-26.76,10.19-1.12,20.29-3.15,31.33-4.91-4.55,5.76-8.68,11.07-12.88,16.32-7.24,9.06-14.45,18.14-21.79,27.11-4.64,5.67-11,8.32-18,9.93-13.76,3.15-27.64,3.24-41.47,1.47-13.4-1.72-25.74,2.27-38,6.19-8.36,2.68-12.81,10.36-16.39,17.91-5.82,12.27-8.07,24.87-4.77,38.66a354.68,354.68,0,0,0,30.33,81.89c4.41,8.47,11.44,14.66,19.63,19.34,16.4,9.37,33,18.34,49.39,27.79s32.71,19.09,48.79,29.08c13.25,8.23,26.16,17,39.13,25.68a179.15,179.15,0,0,1,61.31,69.5c4.45,8.83,9.4,17.41,14.38,26.57,4.61-3.47,4.26-8,5.06-12,5.82-29.3,10.9-58.76,20.26-87.26,9-27.35,21.12-53.22,38-76.47,11.54-15.94,7.63-30.22-.1-45.48-4-7.92-8-16.08-10.27-24.6-3.77-14.06.25-27.65,5.41-40.76a79.76,79.76,0,0,1,10.76-19.51c5.91,18.18,12.37,36.2,17.5,54.6,2.62,9.39,1,19.14-3.69,28.1-3.72,7.06-6.83,14.37-5.51,23.84,1.67-1.95,3-3.12,3.88-4.58,6.53-11.16,13.48-22.11,19.28-33.64,5.67-11.26,10.17-23.11,15.11-34.73,5.46-12.84,10.07-26.11,16.46-38.46,6.18-11.94,3-29.87-6.43-38.54-11.23-10.32-17.84-23.72-21.67-38.39-3.88-14.83-4.16-34.43-.5-47.72,3.41,5.75,6,10.54,9,15.07,6.94,10.52,13.53,21.34,21.27,31.25,9.12,11.66,14.67,23.51,9.53,38.6-1.63,4.8-1.69,10.13-2.47,15.22l2,.72c1.14-1.72,2.74-3.29,3.35-5.18,6.39-20,10.5-40,9.71-61.42-1.12-30.33-6.52-60.12-8.75-90.27-.61-8.21-3.45-16.23-4.81-24.41-1.82-11-2.8-22.13,4.69-31.5a184.59,184.59,0,0,1,18.91-20.42c9.66-8.9,20-17.09,30.31-25.83a43.14,43.14,0,0,1-1.07,5.69c-4.49,14-5.7,28.45-6.21,43.13-.55,15.74-6.3,29.54-18.33,40.61-9,8.25-13.47,18.65-11.7,31.34,2.15,15.42,3.82,30.91,5.75,46.37a27,27,0,0,0,1.3,4.21c6.44-3.37,7.57-9.31,8.55-15,1.16-6.87,1.86-13.84,2.52-20.78,1.28-13.46,6.44-25.41,16.2-34.47,12.64-11.73,26.28-22.37,39.54-33.43.38-.32,1.26,0,2.61,0-1.74,11.91-2.94,23.79-5.29,35.43-4.41,21.79-17.5,37.61-35.74,49.65a97.27,97.27,0,0,0-14.12,10.9,38.8,38.8,0,0,0-12.31,28.48c-.14,25.63-5.88,50.12-15.24,73.79-10.24,25.91-20.91,51.66-31.38,77.48-.6,1.48-1.12,3-1.92,5.14,5.44.42,7.6-2.76,9.33-6.27,10.1-20.6,25.57-36.47,44.7-48.5,9.44-5.94,20.19-9.8,31.62-15.21-.47,2.92-.48,4.69-1,6.25-7.12,19.35-18.53,35.85-32.93,50.54-9.15,9.32-19.38,14.38-32.74,13.77-10.06-.46-17.1,6.61-23.46,13.1-6,6.12-11,13.32-15.72,20.54-16.48,25.35-34.2,49.92-47.68,77.16a286,286,0,0,0-24.33,70.43c-3.42,16.9-7.87,33.67-10,50.73-4,31.94-9.66,63.8-7.95,96.26,1,20-1.45,39.92-4.64,59.57-4,24.41-13,47.31-23.49,69.68-4.63,9.92-9.23,19.89-13,30.15-6.62,17.93-17,33.75-26.74,49.95-20.69,34.46-43.69,67.56-61,104-9,18.94-16.07,38.44-19.29,59.44-4.2,27.35-.16,53.7,7.45,79.72,4.65,15.89,9.88,31.66,18.68,47.5,1.72-3.47,3.3-5.86,4.15-8.48,7.57-23.38,22.24-42.23,38.2-60.25,4.62-5.21,9.93-9.81,14.59-15,10.91-12.14,24.68-19.93,39.36-26.37,27.39-12,55.13-23.38,80.72-39.05,14.43-8.84,29-17.94,37.25-33.67,2.13-4.06,4.29-8.45,4.9-12.91,1.23-9-1.89-16-9.52-22.14-22.86-18.46-30.91-43.16-26.73-71.85,2.3-15.82,5.33-31.51,3-48.3,1.78,2.64,3.61,5.24,5.33,7.91,8.08,12.56,16.08,25.18,24.22,37.7,6.71,10.32,13.3,20.51,15.69,33a49.37,49.37,0,0,1-.18,19.68c-1.91,9.29-3.65,18.61-5.46,27.92l2.34.77c3.87-8.26,8.44-16.27,11.46-24.82,4.85-13.76,8.77-27.85,12.93-41.84,7-23.61,17.21-45.21,36.54-61.6a339,339,0,0,0,28.49-26.54c6.69-7.14,13.43-14.71,14.47-25.5.45-4.64,0-8.49-3-12a67.3,67.3,0,0,1-4.22-5.57c-8.35-12.07-10.27-25.3-4.92-38.77,6-15.08,13.06-29.74,19.94-44.45,1.34-2.86,4-5.12,6.87-8.79,5.4,20.09,12.12,38.33,10.36,58.28a60.43,60.43,0,0,1-11.62,30.32,32.09,32.09,0,0,0-6.56,20.29c10.33-10.87,17.5-22.51,21.63-35.47q11.66-36.56,21.25-73.74c1.54-6,.6-13.59-1.75-19.42-8-19.71-7.12-39.75-4.16-60,1.62-11.09,7.31-20.59,13.81-29.55,6.06-8.34,12-16.79,18.29-24.94,13.51-17.45,20.4-38,27.47-58.41,2-5.68,3.66-11.49,8.93-15.14,1.22-.84,2.84-1.11,5.61-2.14-2.48,6.61-5.46,11.82-6.3,17.35a264,264,0,0,0-3.07,33.67,136.41,136.41,0,0,0,2.08,26.76c2.18,12.36.55,24.5-.52,36.69a52.4,52.4,0,0,1-9.36,26c-7.53,10.51-16,20.38-24.15,30.43-3.78,4.64-8.35,8.7-11.65,13.63a51,51,0,0,0-7.15,15c-6.37,24.42-12.24,49-18.25,73.49-.55,2.23-1,5.08-1.26,6.79,1.59,2.44,28.25-5.24,28.25-5.24,20.79-14.14,44.27-18.61,68.63-20.52,18-1.41,35.64.28,52.62,6.83a15.77,15.77,0,0,1,3.41,1.89c.44.32.56,1.1.94,1.93-18.63,7.35-36.84,14.2-54.79,21.69-22,9.17-43.79,12.52-65.76.52-5.46-3-10.94-4.32-17.14-3.14Zm-830.6-727.41c26.17,29.26,42.1,61,45.59,98.72a71.23,71.23,0,0,0,4.51-15.48c7.1-37.77,22.48-71.56,48.88-99.75,8.07-8.62,11.6-18.19,11.74-29.69a167,167,0,0,0-7.08-49.18c-5.7-19.44-14.15-37.38-29.89-50.85-14.33-12.27-25.67-26.69-33-44.13-2-4.71-5.06-7.57-10.12-8.52-9.76-1.83-16.63-7.73-21.8-15.92-8-12.62-16-25.2-23.86-37.86-.55-.89-.27-2.3-.54-5.3,11.45,7.88,22.75,13.58,31.24,22.09s14.14,19.81,21.39,30.41c.3-1.77.89-3.09.67-4.27-3-16.53-2.23-33.15-1.09-49.75,1.74-25.5-3.78-49.52-14.25-72.57-3.24-7.13-7.79-9.73-15.54-8.66-8.61,1.18-15-3-20.06-8.89-7.3-8.47-13.85-17.6-21-26.86,10.69-.28,18.29,7.36,27.64,10.07,7.91,2.3,13.86,8.12,18.77,15.1a11.41,11.41,0,0,0-1.12-5.69c-4.09-7.6-7.75-15.53-12.65-22.58-10-14.44-16.36-32.21-34.44-39.73-.86-.36-1.43-1.38-2.19-2-7.22-6.08-10-14.7-13.12-23.08-1.77-4.76-3.17-9.67-5-15.47-2.1,2-3.32,2.65-3.9,3.7-8.26,14.89-22,23.57-36.22,31.49a31.71,31.71,0,0,1-14.17,4c-19.27.39-33.91,9.57-44.53,24.46-7.42,10.41-13.48,21.93-16.83,34.74a100.75,100.75,0,0,0-2.76,35.52c2,20.63,5.11,40.63,18.84,57.71,23.5,29.22,36.44,63.87,48,98.95,9.11,27.7,11.15,56.67,12.25,85.57.75,19.93-.13,39.92.22,59.88.36,21,.75,41.93,2.18,62.83,1.2,17.52,3,35.06,9.51,51.74a269.11,269.11,0,0,0,33.45,61.88c9.79,13.37,19.74,26.86,31.31,38.64,15.08,15.35,31.75,29.16,47.92,43.42,4,3.57,8.81,6.35,13.8,9.89.56-2.36,1.14-3.37,1-4.21-8.54-38.58-6-77.26-1.52-116,.63-5.43-.81-11.09-1.11-16.65-.21-3.9-2.29-5.85-5.8-7.15-8.35-3.09-13.68-9.62-16.69-17.5-2.94-7.71-4.78-15.89-6.49-24-2.11-10-3.4-20.22-5.41-30.27C1221.58,1311.32,1219.28,1302.38,1216.77,1291.56Z" transform="translate(-217 -154.38)"/></svg>